<?xml version="1.0" encoding="utf-8"?>
<!-- Generator: Adobe Illustrator 21.0.0, SVG Export Plug-In . SVG Version: 6.00 Build 0)  -->
<svg version="1.1" id="Layer_1" xmlns="http://www.w3.org/2000/svg" xmlns:xlink="http://www.w3.org/1999/xlink" x="0px" y="0px"
	 viewBox="0 0 260 243" style="enable-background:new 0 0 260 243;" xml:space="preserve">
<style type="text/css">
	.st0{fill:#B6CAD1;}
	.st1{fill:#B4C4CC;}
	.st2{fill:#B3C2C9;}
	.st3{fill:#B1C0C8;}
	.st4{fill:#B4C1C9;}
	.st5{fill:#727B80;}
	.st6{fill:#DEE4E7;}
	.st7{fill:#CDD3D6;}
	.st8{fill:#B5C1C8;}
	.st9{fill:#B8C2C9;}
	.st10{fill:#B4C0C7;}
	.st11{fill:#BAC3CA;}
	.st12{fill:#B9C3CA;}
	.st13{fill:#BFC6CD;}
	.st14{fill:#519E35;stroke:#FFFFFF;stroke-miterlimit:10;}
</style>
<g>
	<path class="st0" d="M54.2,12.4c2.7,1.3,5.5,2,8.5,2.4c0.9,1.7,1.8,3.5,3.3,4.8c0.4-0.3,1.1-0.8,1.5-1.1c-0.2-1.6-0.5-3.2-0.7-4.8
		c2.4,0.4,5.3,0.2,7.3,1.9c1.5,1.5,2.4,3.5,3.5,5.3c1,0.3,2.1,0.5,3.1,0.8c0.8,1.7,1.1,4.1,3,5.1c2,1.2,4.1,2.4,5.9,4
		c2,0.4,4,0.7,5.9,1c1.2,1.9,3,3.2,5,4.2c-0.8,1-1.4,2.2-1.9,3.4c-1.3,0.1-2.7,0.2-4,0.3c0.2,1.4,0.4,2.7,0.8,4
		c-1.7-1-3.3-2.4-5.3-2.5c-5.7-0.6-9.4-5.9-14.9-7c-8.7-3.5-18.2-4.2-27.2-6.8c-3.9-1-8-0.7-11.9-0.3c-3.1-0.1-4,4-6.9,4.4
		c-3.4,0.4-6.8,1.3-9.9,2.9c-0.3-0.4-0.9-1.2-1.2-1.6c2-0.4,4-0.8,6-1.3c-2.2-2.1-5.1-3.4-7.9-4.6c3.4-3.2,6.8-6.3,10.4-9.2
		c0.8,0,1.6,0.1,2.4,0.1c1-1,1.9-1.9,2.8-2.9c0.6,1.4,1.2,2.7,2,4.1c3-2.1,6.3-0.8,9.2,0.6c1.2-1.4,2.3-2.7,3.4-4.1
		c2.1-0.6,4.4-0.9,6.6-0.5C53.3,14.2,53.8,13.3,54.2,12.4z"/>
</g>
<g>
	<path class="st1" d="M98.6,39.4c0.5-1.2,1.1-2.4,1.9-3.4c3.4,0.3,6.4,2.3,9.4,3.7c1.5,0.6,1.8,2.4,2.5,3.6c0.8-0.1,2.3-0.2,3.1-0.3
		c1,2.3,1.6,4.6,2,7.1c2.2,1.4,4.5,2.7,6.7,4c1.6-1.4,3.2-2.8,4.8-4.2c6.6,2.2,12,6.9,18.8,8.8c-0.2,0.9-0.4,1.7-0.6,2.6
		c2.1,0.3,4.2,0.7,6.3,0.9c2.1-1.5,4.3-2.9,6.6-4.1c0.5,3.1,1.2,6.2,1.8,9.3c1.6,1.2,3.3,2.4,4.9,3.7c0.5-0.4,1.5-1.1,2-1.4
		c0.5,0.3,1.5,0.8,2,1.1c-1.4,7.4,1.8,14.7,6.3,20.4l0,0.6c-0.1,3.5-0.2,6.9-0.2,10.4c-1.5,1.6-3,3.3-3.9,5.3
		c-0.1,0.4-0.3,1.1-0.4,1.4c-0.2,1.6-0.5,3.3-0.6,4.9c-1-0.8-2.2-1.4-2.8-2.6c0.5-2,1.4-4,1.5-6.1c-2.4-3.2-2.6-7.2-3.5-10.9
		c-1.3-5.7-2.7-11.6-6.2-16.5c-2.8,1.7-5.6,3.5-8.2,5.5c-0.6-1.1-1.2-2.3-1.8-3.4c-4.9-0.7-9.2,1.9-13.5,3.9
		c-0.2-2.2,0.1-4.7-1.3-6.6c-3.6-2.7-7.6-5.5-9.4-9.8c0.7-1.6,2-2.6,3.1-3.9c1.2,0.1,2.4,0.3,3.6,0.4c0-0.7,0-2.1,0-2.8
		c1.6,0.3,3.2,0.6,4.8,0.8c0.3-0.5,1-1.7,1.4-2.2c1.7,1.2,3.7,2.5,5.8,1.7c-2.3-0.4-4.5-1.4-6.5-2.7c-0.4,3.4-3.9,1.9-6.2,2.1
		c0,0.6-0.1,1.8-0.2,2.4c-1-0.1-1.9-0.2-2.9-0.2c-1.4,1.5-3.8,2.8-3.4,5.3c1.9,3.3,4.6,6.1,7.7,8.2c4.6,2.4,1.3,8.5,3.7,12.3
		c-3.6,0.3-7.9-0.1-10.7,2.5c-0.9,2.8-0.4,5.8-0.6,8.6c-5.1,1.4-6.4-4.5-9.9-6.6c-4.4-2.9-8.6-7.2-9-12.8c0-1.8-1.4-3-2.4-4.3
		c0.6-1,1.3-1.9,1.9-2.9c-1.9-1.4-3.8-2.9-5.8-4.4c4.2-1.1,4.3-6,4.1-9.5c-0.6-3.8-1.7-7.5-3.2-11c-1.2-2.7-4.8-2.8-6.6-4.8
		c-0.3-1.3-0.6-2.7-0.8-4C95.9,39.6,97.2,39.5,98.6,39.4z"/>
</g>
<g>
	<path class="st2" d="M152.2,84.6c2.8-2.1,5.7-4.1,8.8-6c3.4,6.1,4.9,13.1,6.2,19.9c0.6,3.8,3.4,7.2,1.9,11.2
		c-5.6-1.8-11.9-2.3-17.6-0.4c-2.1-1-4-2.3-6-3.4c-7.2-0.7-14.5-1.6-21.1-4.9c0.7-0.4,2-1.1,2.7-1.4c0-2.7,0.1-5.5,0.3-8.2
		c3.8-1.3,7.9-1.9,12-1.7c-1-1.6-1.8-3.3-2.2-5.1c4.3-1.6,8.5-4.6,13.3-3.9C151.1,82,151.7,83.3,152.2,84.6z"/>
	<path class="st2" d="M107.7,96.1c-0.2-3.6-2.7-7.8,0.1-10.9c2.8,6.7,10.2,9.1,13.6,15.3c-1.8,0.1-3.7,0.3-5.6,0.2
		C113,99.4,110.5,97.4,107.7,96.1z"/>
</g>
<g>
	<path class="st3" d="M55.8,88.5c3.1,2.3,6.7,4,10.6,3.7c0,0.7,0.1,2.1,0.1,2.7c3.6,1.8,6.6,4.5,9.2,7.5c-0.9,1.4-1.7,2.7-2.6,4.1
		c-4.1-3.4-5.3-9.2-10.2-11.7c-1,0.5-2,1.1-2.9,1.6C59,93.6,57.6,90.9,55.8,88.5z"/>
</g>
<g>
	<path class="st4" d="M190.5,94.5c0.8-1.6,2.1-2.8,3.5-3.9c0.1,1.4-1.3,3.6,0.4,4.4c1.1,0.7,2.2,1.3,3.4,1.8c0,1.1,0.1,2.1,0.1,3.2
		c3.4,2.3,1.9,7.2,4.8,9.9c1.1-1,2.1-2,3.2-3c0.1,0.8,0.1,2.4,0.2,3.2c0.7,0.1,2.1,0.4,2.8,0.6c0.7,1.4,1.3,2.7,2,4.1
		c-1.4-1-2.9-2-4.2-3.1c-1.8,0.9-4.6,1.2-4.9,3.6c-0.8,3.8-1.1,7.7-1.8,11.5c-3.1-0.6-6.1-1.6-9.3-1.8c-2.8,2-3.7,5.8-6.7,7.8
		c-0.9-1.7-1.9-3.4-2.7-5.2c1.6-2.9,2-6.1,2.5-9.3c0.3-1.4,0.7-2.7,1.2-4.1c0.8-2.2,2.1-4.2,3.7-6c1.3-0.6,1.8-1.7,1.4-3.1
		c0.2-0.5,0.7-1.4,0.9-1.9C192.8,100.6,190.5,97.4,190.5,94.5z"/>
</g>
<g>
	<path class="st5" d="M177,102.1c0-3.5,0.1-6.9,0.2-10.4c2.4,2.2,4.2,5,6.6,7.2c2.9,0.8,4.5-2.6,6.2-4.3c0.5,2.8,1.7,5.7,1,8.6
		c-0.2,0.5-0.7,1.4-0.9,1.9c-0.4,0.9,0.6,2.2-1.4,3.1c-1.5,1.8-5.3,8.3-6.1,10.5c-1.8-3.5-3.6,1-7.7,0.8c-1.3,1.1-1.4-5-2.3-3.6
		c-0.2-0.5-0.5-1.6-0.6-2.2c0.1-1.6,0.4-3.3,0.6-4.9c0.8,1.2,1.6,1.4,2.4,0.6c-0.2-1.1-0.8-1.7-1.9-2
		C174,105.4,175.5,103.8,177,102.1z"/>
</g>
<g>
	<path class="st6" d="M188.6,108.3c-0.3-1.4,0.2-2.4,1.4-3.1C190.4,106.6,190,107.6,188.6,108.3z"/>
</g>
<g>
	<path class="st7" d="M173,107.4c1.1,0.3,1.8,0.9,1.9,2c-0.8,0.8-1.6,0.6-2.4-0.6C172.7,108.5,172.9,107.8,173,107.4z"/>
</g>
<g>
	<path class="st8" d="M149.4,110.4c5.6-1.2,11.5-2,17.2-0.6c2.3,2.2,5.3,5.2,4.8,8.6c-4.2,3.5-9.5,5.3-13.8,8.6
		c0.1,1.1,0.2,2.2,0.2,3.3c-4-1.3-8.8-3.8-9.3-8.5c-0.4-2.4,1.4-4.7,3.5-5.7c5.5-0.2,8.5,6.3,14,5.7c-4.4-1.4-7.5-5.1-12-6.2
		C152.4,113.9,150.9,112.2,149.4,110.4z"/>
	<path class="st8" d="M171.1,120.4c3.9-0.2,7.6-1.4,11.5-1.7c0.1,3-0.6,6-2.1,8.6c0.4,1.4,0.8,2.8,1.2,4.2c-2.8,0.7-5.6,1.1-8.5,1.2
		c-1.5-3.5-4.6-6-6.3-9.4C166.9,121.5,169.5,120.8,171.1,120.4z"/>
</g>
<g>
	<path class="st9" d="M51.1,126.2c1.7-1.1,3.5-2.3,5.2-3.5c4.5,0.5,9,1.7,13.5,2.1c0.6,1.3,0.6,2.7,0.8,4.1c4.4,1.4,7.8,5,12.4,5.9
		c3.9,0.9,7,3.7,10.8,4.8c3.4,1.3,7.5,1.1,10.3,3.7c3.1,2.7,6.3,5.1,10,7c4.3,0,8.7-0.3,12.9-0.9c-0.8,2.9-1.9,5.7-2.2,8.7
		c-1.1-0.3-2.1-0.6-3.2-0.9c0,2.5,0,5-0.1,7.5c-1.7-0.4-3.3-0.7-5-1.2c0.4-1.9,0.8-3.8,1.3-5.7c-0.8-0.3-1.5-1-2.3-0.7
		c-5.4,1.1-11.3-0.6-16.3,2.6c0.3-1.9,0.7-3.7,1.1-5.6c-2.8-1.5-5.9-2.7-8.9-3.6c-0.9,1.1-1.8,2.2-2.6,3.3c0.2-2.3,0.3-5-2.7-5.3
		c-2.4-2.1-5.3-3.4-8.3-4c-1.1,1-2.2,2-3.3,3c-1.6-1.5-3.2-3-4.8-4.5c-0.6,0.1-1.8,0.3-2.5,0.4c-2.3-0.7-4.7-1.1-7-1.5
		c0.4-2.6,1.5-5,2.2-7.5C60.8,129.5,55.5,127.8,51.1,126.2z"/>
	<path class="st9" d="M184.3,133.6c3.2-1.6,4.2-5.4,6.7-7.7c3,0.2,5.9,1.1,8.9,1.8c-0.5,4.2-1.5,8.4-1.7,12.7
		c0.7,3.8,2.8,7.3,3.9,11c-1.4,0.6-2.9,1.2-4.2,2c-1.1,1.5-0.4,3.5-0.3,5.3c2.6,0.3,4.8,1.8,6.9,3.4c1.4,1.1,3.4,0,5,0
		c0.1,1.3,0.2,2.7,0.4,4.1c-0.9,0.9-1.8,1.8-2.7,2.7c-1.5-1.2-3-2.3-4.4-3.5c-0.8,1.4-1.7,2.9-2.6,4.3c-4.7-6.4-8.3-13.6-13.7-19.6
		c-4.3-5-6.3-11.5-10.7-16.4c2.1-0.5,4.3-1,6.4-1.6C182.6,132.5,183.7,133.2,184.3,133.6z"/>
</g>
<g>
	<path class="st10" d="M159.4,126.8c1.8-1.6,4.1-2.3,6.2-3.3c1.8,2.8,3.9,5.4,5.9,8c0.6,2.5-2.5,2.7-4,3.8c-0.2,1.4-0.5,2.7-0.7,4.1
		c-1.2,0-2.4-0.1-3.6-0.1c-0.2-0.7-0.6-2-0.8-2.7c-2.5,0.8-5.1,1.1-7.8,1C156.8,134.3,158.2,130.6,159.4,126.8z"/>
</g>
<g>
	<path class="st11" d="M149.2,132.4c2.3,0,4.6,0,6.9-0.1c-0.8,1.9-1.6,3.8-2.2,5.8c2.8,0.2,5.6,0,8.4-0.4c0,5-0.8,9.9-1.2,14.9
		c-0.1,3.6-2.7,6.9-6,8.2c-3.8,1.6-7.8,3-12,3.2c2.7-5,6.6-9.2,9.3-14.3c-3.9-0.7-7.5-2.5-10.5-5.1c1.8,3.4,5.4,5,9,5.9
		c-2.9,4.7-6.5,9-9.3,13.8c4.7,1.5,9.2-0.8,13.5-2.4c-1.2,1.7-2.4,3.4-3.6,5.1c-0.6,0.2-1.8,0.5-2.3,0.7c-0.5,1-1,2-1.5,3
		c-1.1,0-2.1,0.1-3.2,0.1c0.1,0.8,0.2,1.6,0.3,2.4c-1,0.4-1.9,0.8-2.9,1.2c-1.7-2-4-3.2-6.6-3.5c-1.1,1.7-2.1,3.3-3.2,5
		c0.4,0.4,0.8,0.9,1.1,1.3c1.1-0.6,2.1-1.2,3.2-1.8c-1.2,2.3-2.9,4.7-1.6,7.4c-1.5,1.7-3.7,1.9-5.8,2c0,1.9,0,3.7-0.1,5.6
		c-0.8,1.1-1.7,2.2-2.4,3.4c-0.1,3.3,0.8,6.5,1.1,9.8c1.1,0.7,2.2,1.4,3.4,2.1c-0.1,0.7-0.3,2.2-0.5,2.9c-1.6,0.8-2.4-0.7-3.3-1.7
		c-0.5-0.2-1.7-0.5-2.2-0.7c-1.2-2.2-2.7-4.3-4.3-6.3c-1.5,0.4-3,0.8-4.5,1.1c0.4-4.4,2.7-8.2,5.5-11.5c-0.8-2.1-1.9-4-3.6-5.5
		c3.1-1.5,5.6-3.9,7.6-6.6c0.3-4.1,3.6-6.5,6.5-8.9c-1.8-1.4-3.7-2.8-5.6-4.1c-1.3,0.4-2.7,0.8-4,1.2c-0.1-2.2-0.1-4.5-0.2-6.7
		c0.8,0.1,2.5,0.4,3.3,0.6c0-3.3,1.1-6.4,2-9.5c2.2,0.7,4.8,2.2,7,0.7c2.6-1.7,4.4-4.4,6.7-6.5c-0.1-0.7-0.2-2-0.3-2.6
		C145.3,139.6,148.6,136.8,149.2,132.4z"/>
	<path class="st11" d="M167.4,140.1c0.4-1.8,0.4-4,2.2-5c2.3,10.4,5.5,20.6,6.9,31.1c-3.3,0.8-6.4,2.3-9,4.6c-2.5,1.7-1.6,5-1.8,7.6
		c-0.2,2.2,1.2,4.1,2.3,5.9c-1.7,2.4-3.2,4.9-4.5,7.5c-3.3-2.5-6.7-5.1-10.1-7.5c3.1-1.9,5.3-4.8,7.1-7.9c-0.8-1-1.6-2-2.4-2.9
		c-0.7,0.6-1.3,1.2-2,1.9c-2.9-1.1-5.8-2-8.7-3c1.9-3.1,5.4-4.8,7.3-7.9c2.1-3.2,5.4-5.5,7-9c0.8-5.1,1.3-10.2,1.8-15.3
		C164.9,140.1,166.1,140.1,167.4,140.1z"/>
</g>
<g>
	<path class="st12" d="M171,136.5c-0.6-2,1.7-3.9,3.5-2.6c4.9,4.8,6.6,11.9,11.3,16.9c3.1,3.3,5,7.4,7.9,10.9
		c-5.3,1.4-10.6,2.8-15.9,4.3C175.9,156.1,173.4,146.3,171,136.5z"/>
</g>
<g>
	<path class="st13" d="M187,164.6c2.4-0.6,4.8-1.3,7.1-2.1c1.8,2.9,3.7,5.8,5.9,8.5c1-1.3,2.1-2.6,3.1-3.9c1.3,1,2.6,2.1,4,3.1
		c1.3-1.2,2.6-2.4,3.9-3.6c4,4,8.2,7.8,12.3,11.7c4.6,0.4,8.5,3.3,13,4.3c1.1-0.4,2.2-0.7,3.3-1.1c-0.3,1.1-0.6,2.1-0.9,3.2
		c1.8,3.2,3.2,6.6,4.7,9.9c-3-0.5-6.1-0.9-9.1-1.1c-1.3,1.4-2.7,2.9-4,4.3c-0.1,1.2-0.1,2.4-0.2,3.6c-2,0.2-4,0.4-6,0.6
		c-0.9-2.1-2.1-4.1-3.8-5.7c-0.7,0.8-1.5,1.5-2.2,2.3c-3.4,1-7,0.5-10-1.4c1,0.9,1.9,1.9,2.9,2.8c-0.9,2.4-1.6,4.8-2.3,7.2
		c-2.2-0.4-4.5-0.7-6.7-1.1c-0.6,2-1.3,4.1-1.9,6.2c-2.9-0.4-5.4,0.7-7,3.1c2.9,3.4,4.5,7.5,3.8,12c-1.3,1-2.6,2-3.9,3
		c-4.7-1.3-5.1-7-8.8-9.6c-1.1,1.6-2.1,3.2-3.2,4.8c-4.3,1.1-8.7,0.2-12.1-2.6c-2.3-0.2-4.6-0.6-6.9-1.3c-3.4,3.2-6.8,6.4-10.1,9.8
		c-0.4-0.7-1.3-2.1-1.7-2.9c1.1-0.8,2.1-1.5,3.2-2.2c-1.1-1.3-2.3-2.5-3.1-4c-0.1-1.3,0.5-2.5,0.8-3.7c-0.3-0.4-1-1.2-1.4-1.6
		c-1.1,0.3-2.2,0.6-3.3,0.9c1-1.9,2.3-3.7,4-5.1c-0.2-0.5-0.6-1.6-0.8-2.1c3.3-2.5,5.4-6.1,8.6-8.7c-0.2-0.5-0.7-1.6-1-2.1
		c1.9-2.2,3.5-4.8,4.6-7.5c0.7,0.3,1.4,0.6,2.2,0.8c1.4-3.4,4.1-6.3,5-9.9c-0.6-0.4-1.7-1.3-2.2-1.8c0-2.9,0-5.8,0-8.7
		c5.1-5,12.5-5.7,19-7.8c3.1,2.3,3.8,6.1,5.3,9.4c2.9,2.8,6.8,4.2,9.9,6.7c-1,2.1-2,4.3-2.6,6.6c0.9,2.1,2.6,3.8,4.1,5.5
		c1.5,0,3-0.1,4.5-0.1c0.1,1.5,0.3,3,0.5,4.5c0.4-1.8,0.9-3.7,1.3-5.5c-2-0.1-3.9-0.2-5.9-0.2c-1-1.1-2.1-2.2-2.9-3.4
		c-0.5-2.8,1.5-5.2,2.4-7.6c-3.3-2.6-7.5-4.2-10.4-7.2C190.8,170.3,189.8,166.9,187,164.6z"/>
</g>
<g>
	<g>
		<path class="st14" d="M184.4,74.9c-5.6,0-10.2,4.6-10.2,10.2c0,7,9.2,17.3,9.6,17.7c0.4,0.4,1,0.4,1.4,0
			c0.4-0.4,9.6-10.7,9.6-17.7C194.6,79.5,190,74.9,184.4,74.9z M184.4,90.3c-2.8,0-5.2-2.3-5.2-5.2s2.3-5.2,5.2-5.2s5.2,2.3,5.2,5.2
			S187.2,90.3,184.4,90.3z"/>
	</g>
</g>
</svg>
